<?xml version="1.0" standalone="no"?>
<!DOCTYPE svg PUBLIC "-//W3C//DTD SVG 20010904//EN"
 "http://www.w3.org/TR/2001/REC-SVG-20010904/DTD/svg10.dtd">
<svg version="1.0" xmlns="http://www.w3.org/2000/svg"
 width="900.000000pt" height="900.000000pt" viewBox="0 0 900.000000 900.000000"
 preserveAspectRatio="xMidYMid meet">
<metadata>
Created by potrace 1.10, written by Peter Selinger 2001-2011
</metadata>
<g transform="translate(0.000000,900.000000) scale(0.100000,-0.100000)"
fill="#0b843f" stroke="none">
<path d="M1245 6538 c-118 -29 -243 -97 -311 -170 -97 -103 -168 -263 -162
-364 l3 -49 1028 -3 c913 -2 1028 -4 1034 -17 3 -9 -7 -39 -22 -68 -15 -29
-66 -126 -112 -217 -47 -91 -101 -194 -121 -230 -40 -75 -127 -241 -217 -415
-61 -118 -136 -262 -250 -480 -147 -282 -183 -350 -255 -490 -43 -82 -101
-195 -130 -250 -29 -55 -84 -161 -122 -235 -82 -157 -150 -287 -239 -455 -202
-383 -221 -423 -214 -435 10 -16 650 -13 663 3 15 18 46 76 140 257 46 91 101
197 122 235 42 79 137 260 232 445 86 165 179 343 241 460 27 52 86 165 130
250 44 85 96 187 117 225 20 39 75 142 121 230 46 88 109 210 141 270 32 61
78 151 103 200 26 50 68 131 94 180 71 134 222 425 243 467 23 48 53 68 101
68 41 0 58 -20 40 -49 -9 -15 -35 -64 -208 -396 -38 -71 -74 -141 -82 -155
-19 -36 -17 -44 29 -128 69 -126 93 -165 103 -165 10 1 31 38 133 233 35 69
95 184 132 255 l68 131 -54 99 c-31 55 -62 110 -69 122 -36 54 -61 52 698 55
689 4 703 4 757 25 229 89 366 251 411 486 5 28 7 59 3 69 -5 17 -86 18 -2142
17 -1352 -1 -2152 -5 -2177 -11z"/>
<path d="M7890 5754 c-72 -13 -71 -12 -68 -52 l3 -37 51 -1 c34 0 63 -8 87
-23 46 -28 151 -147 142 -161 -4 -7 -473 -10 -1493 -10 -818 0 -1493 -4 -1500
-9 -8 -5 -12 -22 -10 -42 3 -31 6 -34 38 -37 19 -2 41 -8 47 -14 17 -14 18
-429 2 -461 -21 -40 -79 -83 -127 -95 -57 -15 -116 -1 -209 48 -86 45 -85 65
4 76 151 20 276 160 260 292 -12 103 -74 192 -162 232 -63 29 -193 28 -269 -1
-52 -20 -58 -21 -74 -5 -37 32 -82 14 -82 -34 0 -17 8 -29 23 -35 20 -9 22
-16 19 -72 -5 -91 27 -141 110 -169 55 -18 97 -8 123 29 13 19 12 22 -15 39
-28 16 -30 22 -30 77 0 52 3 62 26 80 78 61 154 -36 133 -168 -11 -74 -46
-123 -108 -155 -39 -21 -147 -21 -196 0 -57 24 -65 15 -65 -67 0 -87 18 -121
93 -176 110 -81 180 -104 319 -104 87 0 116 4 154 20 64 29 80 27 88 -9 l6
-31 87 3 88 3 5 345 c3 190 7 346 8 348 1 2 32 2 70 0 l67 -3 5 -345 c3 -190
7 -346 8 -348 1 -1 44 -1 95 0 l92 3 5 335 c3 184 9 341 13 348 6 9 72 12 272
12 258 0 265 -1 275 -21 9 -16 8 -24 -5 -39 -14 -16 -35 -18 -166 -19 -125 -1
-156 -4 -185 -20 -52 -28 -74 -62 -74 -115 0 -47 21 -79 62 -92 28 -9 21 -29
-18 -55 -51 -34 -75 -88 -76 -164 -1 -123 62 -195 219 -252 100 -37 412 -14
465 34 17 15 45 110 35 119 -3 3 -35 -8 -71 -25 -135 -65 -292 -64 -379 3 -52
39 -71 90 -62 161 11 91 71 135 180 135 74 0 115 -17 136 -57 18 -34 1 -75
-39 -92 -37 -17 -40 -29 -11 -65 24 -30 67 -35 113 -11 15 8 33 15 39 15 5 0
29 16 53 35 91 75 60 189 -66 247 -39 19 -63 21 -192 21 -129 0 -149 2 -164
18 -8 9 -14 26 -12 36 7 36 45 43 236 43 l182 0 0 68 c0 40 5 73 12 80 14 14
156 16 178 2 13 -8 15 -56 16 -327 1 -175 2 -328 3 -340 1 -22 5 -23 90 -23
84 0 89 1 95 23 3 12 6 164 6 338 0 231 3 318 12 327 9 9 78 12 248 12 213 0
238 -2 252 -17 13 -15 16 -55 17 -237 0 -120 -2 -229 -5 -242 -7 -26 -50 -54
-84 -54 -38 0 -79 30 -102 73 -17 33 -21 59 -21 122 0 129 39 184 131 185 28
0 52 4 52 8 0 8 -28 71 -36 80 -11 15 -94 21 -148 11 -125 -24 -190 -93 -216
-231 -11 -55 -11 -77 -1 -125 22 -99 56 -145 136 -190 44 -24 64 -28 165 -33
107 -5 116 -7 125 -27 9 -21 16 -23 96 -23 70 0 88 3 93 16 3 9 6 113 6 233 0
167 3 221 14 236 19 26 117 33 151 11 93 -61 86 -277 -11 -337 -29 -18 -40
-20 -60 -10 -14 6 -27 11 -29 11 -9 0 -5 -40 4 -58 5 -9 12 -25 15 -34 8 -27
122 -25 183 3 64 29 134 104 157 168 22 61 19 199 -5 241 -53 93 -101 129
-202 150 -48 10 -68 9 -123 -5 -36 -9 -72 -14 -80 -11 -17 7 -19 57 -2 74 18
18 521 17 537 -1 7 -9 12 -122 13 -348 l3 -334 84 -3 c46 -2 88 1 94 7 6 6 9
134 8 330 -1 215 1 327 9 341 8 15 21 20 50 20 47 0 66 24 50 64 -9 24 -15 26
-64 26 l-54 0 -113 115 c-137 140 -171 162 -264 168 -39 3 -81 3 -95 1z"/>
<path d="M3832 5573 c-10 -21 -40 -78 -66 -128 -27 -49 -91 -172 -142 -272
l-94 -182 20 -38 c12 -21 32 -56 44 -78 12 -22 36 -65 52 -95 28 -50 98 -176
154 -274 12 -22 33 -60 47 -85 13 -25 38 -70 54 -99 16 -29 27 -57 24 -63 -4
-5 -162 -9 -389 -9 -428 0 -392 6 -433 -75 -11 -22 -48 -94 -83 -160 -144
-276 -180 -346 -180 -355 0 -6 261 -10 714 -10 l714 0 18 -27 c26 -38 40 -63
58 -98 8 -16 29 -55 47 -85 17 -30 42 -75 56 -100 13 -25 35 -63 47 -85 12
-22 40 -71 61 -110 21 -38 46 -83 56 -100 10 -16 30 -52 44 -80 14 -27 36 -68
49 -90 12 -22 41 -73 63 -113 68 -124 24 -112 402 -112 349 0 358 1 327 46 -8
11 -36 60 -63 109 -28 50 -59 106 -70 125 -11 19 -39 71 -63 115 -23 44 -46
85 -50 90 -4 6 -22 37 -40 70 -73 133 -126 229 -212 385 -47 83 -131 235 -158
285 -15 28 -53 94 -84 149 -31 54 -56 100 -56 101 0 1 -33 61 -73 132 -40 71
-83 149 -96 173 -12 25 -26 52 -31 60 -16 26 -69 119 -104 183 -53 98 -87 160
-106 192 -10 17 -29 50 -42 75 -14 25 -48 88 -78 140 -29 52 -65 118 -80 145
-15 28 -39 70 -52 95 -100 178 -133 238 -145 263 -20 37 -39 34 -61 -10z"/>
<path d="M5512 4168 c-49 -19 -54 -20 -70 -4 -22 19 -73 21 -90 4 -16 -16 -15
-63 1 -76 7 -6 30 -12 52 -14 36 -3 40 -6 45 -33 6 -37 14 -37 69 0 37 25 52
29 112 29 84 0 119 -24 119 -84 0 -65 -38 -98 -124 -109 l-51 -6 0 -50 0 -50
61 -6 c33 -3 71 -13 84 -22 93 -65 75 -198 -30 -225 -79 -20 -149 19 -192 105
-12 24 -26 43 -30 43 -18 0 -108 -111 -108 -133 0 -22 87 -92 156 -126 80 -39
194 -55 283 -40 100 17 152 50 204 129 22 31 23 154 2 190 -25 44 -20 50 44
50 33 0 63 -5 66 -11 4 -5 6 -77 6 -159 -1 -93 2 -158 9 -170 10 -19 19 -20
102 -18 l92 3 8 30 c5 17 8 169 7 338 -1 177 3 313 8 318 5 5 139 8 319 7
l309 -3 3 -226 c3 -263 5 -257 -96 -266 -70 -6 -120 8 -153 43 -20 22 -24 35
-23 88 1 108 57 172 154 178 52 3 55 5 64 35 17 62 10 64 -238 61 l-221 -3 -3
-33 c-5 -47 12 -62 68 -62 25 0 49 -3 52 -6 4 -3 -13 -24 -36 -47 -83 -83
-101 -184 -48 -268 33 -52 40 -57 112 -96 78 -42 183 -60 257 -44 32 7 68 19
79 26 26 17 34 11 34 -25 0 -44 18 -51 121 -48 l94 3 3 334 c1 233 6 338 14
348 8 10 29 13 67 11 l56 -3 3 -334 c1 -232 6 -338 14 -348 8 -10 34 -13 102
-11 l91 3 5 345 5 345 177 3 177 2 32 -28 c31 -27 33 -34 33 -93 0 -77 -25
-119 -86 -144 -50 -20 -80 -19 -156 5 -35 11 -68 20 -73 20 -5 0 -9 -28 -9
-62 l0 -63 47 -25 c46 -25 60 -41 185 -223 35 -50 109 -106 167 -125 44 -15
166 -14 211 2 37 13 70 62 70 104 0 26 -24 29 -66 7 -38 -20 -73 -19 -106 3
-31 20 -84 89 -113 146 -11 21 -32 51 -47 67 -39 38 -36 57 10 64 87 14 172
78 188 140 10 42 -2 115 -25 146 -41 55 -35 58 112 61 l132 3 0 45 0 45 -1212
3 -1213 2 -6 -26 c-4 -14 -2 -36 4 -49 10 -21 19 -24 69 -27 l58 -3 3 -107 3
-108 -59 0 c-32 0 -63 -5 -70 -12 -7 -7 -12 -32 -12 -56 l0 -44 -32 24 c-18
13 -42 28 -52 32 -18 6 -16 10 17 37 51 42 73 114 55 183 -17 67 -76 126 -150
149 -80 25 -236 22 -306 -5z"/>
</g>
</svg>
